<svg width="23" height="23" viewBox="0 0 23 23" fill="none" xmlns="http://www.w3.org/2000/svg">
<path d="M0.898438 0.359378H1.34766C1.64535 0.359378 1.88672 0.600743 1.88672 0.89844V5.86792C3.82716 2.56266 7.42285 0.346575 11.5356 0.359423C17.6624 0.378605 22.6502 5.39103 22.6406 11.5178C22.631 17.6624 17.6468 22.6406 11.5 22.6406C8.62832 22.6406 6.01046 21.5541 4.03497 19.7698C3.80529 19.5623 3.79446 19.2055 4.01332 18.9866L4.33087 18.6691C4.53316 18.4668 4.85866 18.4573 5.07128 18.6487C6.77341 20.1806 9.02638 21.1133 11.5 21.1133C16.7893 21.1133 21.1133 16.8308 21.1133 11.5C21.1133 6.21072 16.8308 1.88672 11.5 1.88672C7.77768 1.88672 4.54892 4.00151 2.95186 7.09766H8.08594C8.38363 7.09766 8.625 7.33902 8.625 7.63672V8.08594C8.625 8.38364 8.38363 8.625 8.08594 8.625H0.898438C0.60074 8.625 0.359375 8.38364 0.359375 8.08594V0.89844C0.359375 0.600743 0.60074 0.359378 0.898438 0.359378Z" fill="black"/>
</svg>
